<svg xmlns="http://www.w3.org/2000/svg" xmlns:xlink="http://www.w3.org/1999/xlink" width="250" zoomAndPan="magnify" viewBox="0 0 187.5 187.499992" height="250" preserveAspectRatio="xMidYMid meet" version="1.0"><defs><clipPath id="a323983a5c"><path d="M 2.878906 2.878906 L 183.898438 2.878906 L 183.898438 183.898438 L 2.878906 183.898438 Z M 2.878906 2.878906 " clip-rule="nonzero"/></clipPath><clipPath id="ec8ebed17e"><path d="M 2.878906 2.878906 L 117 2.878906 L 117 183.898438 L 2.878906 183.898438 Z M 2.878906 2.878906 " clip-rule="nonzero"/></clipPath></defs><path fill="#ffffff" d="M 0 0 L 187 0 L 187 187 L 0 187 Z M 0 0 " fill-opacity="1" fill-rule="nonzero"/><g clip-path="url(#a323983a5c)"><path fill="#f2e6c7" d="M 29.378906 157.398438 L 2.878906 183.898438 L 93.390625 183.898438 C 143.371094 183.898438 183.898438 143.371094 183.898438 93.390625 C 183.898438 43.410156 143.371094 2.878906 93.390625 2.878906 C 43.410156 2.878906 2.878906 43.410156 2.878906 93.390625 C 2.878906 118.378906 13.039062 141.007812 29.378906 157.398438 " fill-opacity="1" fill-rule="nonzero"/></g><g clip-path="url(#ec8ebed17e)"><path fill="#e3cea8" d="M 27.015625 96.40625 C 27.015625 121.386719 37.183594 144.011719 53.503906 160.425781 L 30.03125 183.898438 L 2.878906 183.898438 L 29.371094 157.410156 C 13.046875 140.996094 2.878906 118.371094 2.878906 93.390625 C 2.878906 43.398438 43.398438 2.878906 93.390625 2.878906 C 101.414062 2.878906 109.199219 3.9375 116.621094 5.925781 C 67.050781 6.378906 27.015625 46.714844 27.015625 96.40625 Z M 27.015625 96.40625 " fill-opacity="1" fill-rule="nonzero"/></g><path fill="#d6253b" d="M 104.945312 97.613281 L 93.390625 108.472656 L 81.835938 97.613281 L 68.339844 100.625 C 63.445312 101.714844 59.730469 105.730469 59.019531 110.699219 C 57.402344 122.027344 55.792969 133.339844 54.167969 144.675781 C 69.945312 149.65625 83.796875 150.710938 93.390625 150.710938 C 109.953125 150.710938 123.46875 147.574219 132.609375 144.675781 L 127.753906 110.695312 C 127.046875 105.726562 123.335938 101.714844 118.4375 100.625 Z M 104.945312 97.613281 " fill-opacity="1" fill-rule="nonzero"/><path fill="#b71833" d="M 132.609375 144.675781 C 123.46875 147.574219 109.953125 150.710938 93.390625 150.710938 C 83.796875 150.710938 69.945312 149.65625 54.167969 144.675781 C 55.796875 133.332031 57.398438 122.019531 59.027344 110.707031 C 59.71875 105.726562 63.429688 101.714844 68.347656 100.628906 L 74.019531 99.363281 C 73.054688 105.96875 72.121094 112.605469 71.152344 119.214844 C 70.039062 127.117188 75.257812 134.601562 83.101562 136.167969 C 93.085938 138.128906 101.804688 138.644531 108.472656 138.644531 C 117.011719 138.644531 124.734375 137.796875 131.464844 136.589844 Z M 132.609375 144.675781 " fill-opacity="1" fill-rule="nonzero"/><path fill="#304259" d="M 111.492188 105.457031 L 93.390625 105.457031 C 91.722656 105.457031 90.371094 104.105469 90.371094 102.441406 C 90.371094 100.773438 91.722656 99.421875 93.390625 99.421875 L 111.492188 99.421875 C 113.152344 99.421875 114.507812 98.070312 114.507812 96.40625 L 114.507812 72.269531 C 114.507812 70.605469 115.859375 69.253906 117.523438 69.253906 C 119.191406 69.253906 120.542969 70.605469 120.542969 72.269531 L 120.542969 96.40625 C 120.542969 101.398438 116.480469 105.457031 111.492188 105.457031 Z M 111.492188 105.457031 " fill-opacity="1" fill-rule="nonzero"/><path fill="#304259" d="M 99.421875 102.441406 C 99.421875 102.835938 99.382812 103.226562 99.308594 103.617188 C 99.230469 104.003906 99.113281 104.382812 98.964844 104.75 C 98.8125 105.113281 98.625 105.460938 98.40625 105.792969 C 98.1875 106.121094 97.9375 106.425781 97.65625 106.707031 C 97.375 106.988281 97.070312 107.238281 96.742188 107.457031 C 96.410156 107.675781 96.0625 107.863281 95.699219 108.015625 C 95.332031 108.167969 94.953125 108.28125 94.566406 108.359375 C 94.175781 108.433594 93.785156 108.472656 93.390625 108.472656 C 92.992188 108.472656 92.601562 108.433594 92.210938 108.359375 C 91.824219 108.28125 91.445312 108.167969 91.078125 108.015625 C 90.714844 107.863281 90.367188 107.675781 90.035156 107.457031 C 89.707031 107.238281 89.402344 106.988281 89.121094 106.707031 C 88.84375 106.425781 88.59375 106.121094 88.371094 105.792969 C 88.152344 105.460938 87.964844 105.113281 87.8125 104.75 C 87.664062 104.382812 87.546875 104.003906 87.472656 103.617188 C 87.394531 103.226562 87.355469 102.835938 87.355469 102.441406 C 87.355469 102.042969 87.394531 101.652344 87.472656 101.261719 C 87.546875 100.875 87.664062 100.496094 87.8125 100.128906 C 87.964844 99.765625 88.152344 99.417969 88.371094 99.085938 C 88.59375 98.757812 88.84375 98.453125 89.121094 98.171875 C 89.402344 97.894531 89.707031 97.644531 90.035156 97.421875 C 90.367188 97.203125 90.714844 97.015625 91.078125 96.867188 C 91.445312 96.714844 91.824219 96.597656 92.210938 96.523438 C 92.601562 96.445312 92.992188 96.40625 93.390625 96.40625 C 93.785156 96.40625 94.175781 96.445312 94.566406 96.523438 C 94.953125 96.597656 95.332031 96.714844 95.699219 96.867188 C 96.0625 97.015625 96.410156 97.203125 96.742188 97.421875 C 97.070312 97.644531 97.375 97.894531 97.65625 98.171875 C 97.9375 98.453125 98.1875 98.757812 98.40625 99.085938 C 98.625 99.417969 98.8125 99.765625 98.964844 100.128906 C 99.113281 100.496094 99.230469 100.875 99.308594 101.261719 C 99.382812 101.652344 99.421875 102.042969 99.421875 102.441406 Z M 99.421875 102.441406 " fill-opacity="1" fill-rule="nonzero"/><path fill="#304259" d="M 120.542969 69.253906 C 118.875 69.253906 117.523438 67.902344 117.523438 66.238281 L 117.523438 51.152344 C 117.523438 37.84375 106.695312 27.015625 93.390625 27.015625 C 80.082031 27.015625 69.253906 37.84375 69.253906 51.152344 L 69.253906 66.238281 C 69.253906 67.902344 67.902344 69.253906 66.238281 69.253906 C 64.570312 69.253906 63.21875 67.902344 63.21875 66.238281 L 63.21875 51.152344 C 63.21875 34.515625 76.753906 20.980469 93.390625 20.980469 C 110.023438 20.980469 123.558594 34.515625 123.558594 51.152344 L 123.558594 66.238281 C 123.558594 67.902344 122.207031 69.253906 120.542969 69.253906 Z M 120.542969 69.253906 " fill-opacity="1" fill-rule="nonzero"/><path fill="#456a8e" d="M 112.277344 81.320312 L 108.472656 81.320312 C 106.808594 81.320312 105.457031 79.96875 105.457031 78.304688 L 105.457031 60.203125 C 105.457031 58.535156 106.808594 57.183594 108.472656 57.183594 L 112.277344 57.183594 C 118.5 57.183594 123.558594 62.246094 123.558594 68.464844 L 123.558594 70.042969 C 123.558594 76.261719 118.5 81.320312 112.277344 81.320312 Z M 112.277344 81.320312 " fill-opacity="1" fill-rule="nonzero"/><path fill="#456a8e" d="M 78.304688 81.320312 L 74.5 81.320312 C 68.28125 81.320312 63.21875 76.261719 63.21875 70.042969 L 63.21875 68.464844 C 63.21875 62.246094 68.28125 57.183594 74.5 57.183594 L 78.304688 57.183594 C 79.96875 57.183594 81.320312 58.535156 81.320312 60.203125 L 81.320312 78.304688 C 81.320312 79.96875 79.96875 81.320312 78.304688 81.320312 Z M 78.304688 81.320312 " fill-opacity="1" fill-rule="nonzero"/><path fill="#304259" d="M 118.308594 75.289062 L 114.507812 75.289062 C 112.847656 75.289062 111.492188 73.929688 111.492188 72.269531 L 111.492188 57.183594 L 108.472656 57.183594 C 106.8125 57.183594 105.457031 58.542969 105.457031 60.203125 L 105.457031 78.304688 C 105.457031 79.964844 106.8125 81.320312 108.472656 81.320312 L 112.273438 81.320312 C 116.921875 81.320312 120.964844 78.484375 122.652344 74.414062 C 121.324219 74.984375 119.847656 75.289062 118.308594 75.289062 Z M 118.308594 75.289062 " fill-opacity="1" fill-rule="nonzero"/><path fill="#304259" d="M 80.535156 75.289062 C 74.320312 75.289062 69.253906 70.21875 69.253906 64.003906 L 69.253906 62.433594 C 69.253906 60.894531 69.554688 59.417969 70.128906 58.089844 C 66.054688 59.78125 63.21875 63.824219 63.21875 68.46875 L 63.21875 70.039062 C 63.21875 76.253906 68.289062 81.320312 74.503906 81.320312 L 78.304688 81.320312 C 79.964844 81.320312 81.320312 79.964844 81.320312 78.304688 L 81.320312 75.289062 Z M 80.535156 75.289062 " fill-opacity="1" fill-rule="nonzero"/><path fill="#456a8e" d="M 108.472656 51.152344 C 105.515625 53.082031 100.386719 55.886719 93.390625 57.183594 C 86.992188 58.363281 81.652344 57.789062 78.304688 57.183594 L 78.304688 51.152344 C 78.304688 42.824219 85.0625 36.066406 93.390625 36.066406 C 97.550781 36.066406 101.324219 37.757812 104.070312 40.472656 C 106.785156 43.21875 108.472656 46.988281 108.472656 51.152344 Z M 108.472656 51.152344 " fill-opacity="1" fill-rule="nonzero"/><path fill="#304259" d="M 108.472656 51.152344 C 105.515625 53.082031 100.386719 55.886719 93.390625 57.183594 C 86.992188 58.363281 81.652344 57.789062 78.304688 57.183594 L 78.304688 51.152344 C 78.304688 43.789062 83.582031 37.636719 90.582031 36.339844 C 88.5625 39.082031 87.355469 42.433594 87.355469 45.839844 C 87.355469 48.980469 89.769531 51.632812 92.90625 51.785156 C 95.652344 51.90625 98.878906 51.816406 102.441406 51.152344 C 104.613281 50.757812 106.574219 50.214844 108.382812 49.582031 C 108.445312 50.09375 108.472656 50.609375 108.472656 51.152344 Z M 108.472656 51.152344 " fill-opacity="1" fill-rule="nonzero"/><path fill="#eaab6c" d="M 93.390625 87.355469 C 85.058594 87.355469 78.304688 80.601562 78.304688 72.269531 L 78.304688 57.183594 C 81.644531 57.804688 87 58.367188 93.390625 57.183594 C 100.386719 55.890625 105.527344 53.070312 108.472656 51.152344 L 108.472656 72.269531 C 108.472656 80.601562 101.71875 87.355469 93.390625 87.355469 Z M 93.390625 87.355469 " fill-opacity="1" fill-rule="nonzero"/><path fill="#db8a42" d="M 106.632812 79.480469 C 104.070312 84.1875 99.089844 87.355469 93.390625 87.355469 C 85.0625 87.355469 78.304688 80.597656 78.304688 72.269531 L 78.304688 57.183594 C 79.902344 57.488281 81.925781 57.757812 84.339844 57.847656 L 84.339844 66.238281 C 84.339844 74.5625 91.097656 81.320312 99.421875 81.320312 C 102.046875 81.320312 104.492188 80.65625 106.632812 79.480469 Z M 106.632812 79.480469 " fill-opacity="1" fill-rule="nonzero"/></svg>