<svg xmlns="http://www.w3.org/2000/svg" xmlns:xlink="http://www.w3.org/1999/xlink" width="250" zoomAndPan="magnify" viewBox="0 0 187.5 187.499992" height="250" preserveAspectRatio="xMidYMid meet" version="1.0"><defs><clipPath id="f4bb884e78"><path d="M 57 124 L 129 124 L 129 186.734375 L 57 186.734375 Z M 57 124 " clip-rule="nonzero"/></clipPath><clipPath id="00374135e8"><path d="M 57 124 L 101 124 L 101 186.734375 L 57 186.734375 Z M 57 124 " clip-rule="nonzero"/></clipPath><clipPath id="54e19465c7"><path d="M 4.507812 17 L 76 17 L 76 79 L 4.507812 79 Z M 4.507812 17 " clip-rule="nonzero"/></clipPath><clipPath id="50ad300b76"><path d="M 111 17 L 182.226562 17 L 182.226562 79 L 111 79 Z M 111 17 " clip-rule="nonzero"/></clipPath><clipPath id="e07f2a380a"><path d="M 53 9.015625 L 134 9.015625 L 134 70 L 53 70 Z M 53 9.015625 " clip-rule="nonzero"/></clipPath><clipPath id="f94345f523"><path d="M 79 24.132812 L 108 24.132812 L 108 49.4375 L 79 49.4375 Z M 79 24.132812 " clip-rule="nonzero"/></clipPath><clipPath id="c12c595afc"><path d="M 80.394531 28.5 C 78.085938 32.304688 79.710938 36.007812 81.753906 37.96875 L 93.707031 49.4375 L 105.402344 38.011719 C 107.304688 35.898438 108.03125 33.65625 107.628906 31.160156 C 107.070312 27.707031 104.222656 25.027344 100.707031 24.644531 C 98.550781 24.414062 96.46875 25.023438 94.84375 26.375 C 94.40625 26.738281 94.015625 27.144531 93.675781 27.585938 C 93.269531 27.082031 92.796875 26.621094 92.261719 26.214844 C 90.390625 24.792969 88.011719 24.230469 85.726562 24.667969 C 83.5625 25.085938 81.617188 26.484375 80.394531 28.5 Z M 80.394531 28.5 " clip-rule="nonzero"/></clipPath><clipPath id="2b8b939cb9"><path d="M 25.351562 30.878906 L 50.3125 30.878906 L 50.3125 55.839844 L 25.351562 55.839844 Z M 25.351562 30.878906 " clip-rule="nonzero"/></clipPath><clipPath id="c8919d59a6"><path d="M 139.332031 33.511719 L 167.472656 33.511719 L 167.472656 59.402344 L 139.332031 59.402344 Z M 139.332031 33.511719 " clip-rule="nonzero"/></clipPath><clipPath id="6c5db8654b"><path d="M 161 20.546875 L 176.273438 20.546875 L 176.273438 38.992188 L 161 38.992188 Z M 161 20.546875 " clip-rule="nonzero"/></clipPath><clipPath id="2d2748f2cc"><path d="M 171 29 L 176.273438 29 L 176.273438 31 L 171 31 Z M 171 29 " clip-rule="nonzero"/></clipPath><clipPath id="e7503f566e"><path d="M 171.164062 32.035156 L 176.273438 32.035156 L 176.273438 33.511719 L 171.164062 33.511719 Z M 171.164062 32.035156 " clip-rule="nonzero"/></clipPath></defs><path fill="#8fa5a5" d="M 146.683594 124.535156 C 145.664062 124.535156 144.648438 124.585938 143.636719 124.6875 C 142.621094 124.789062 141.617188 124.9375 140.617188 125.136719 C 139.621094 125.335938 138.632812 125.585938 137.660156 125.878906 C 136.683594 126.175781 135.726562 126.519531 134.789062 126.910156 C 133.847656 127.300781 132.925781 127.734375 132.03125 128.214844 C 131.132812 128.695312 130.257812 129.21875 129.414062 129.785156 C 128.566406 130.351562 127.75 130.957031 126.960938 131.605469 C 126.175781 132.25 125.421875 132.933594 124.703125 133.652344 C 123.980469 134.375 123.300781 135.125 122.652344 135.914062 C 122.007812 136.699219 121.402344 137.519531 120.835938 138.363281 C 120.269531 139.210938 119.746094 140.082031 119.265625 140.980469 C 118.785156 141.878906 118.351562 142.796875 117.960938 143.738281 C 117.570312 144.679688 117.226562 145.636719 116.929688 146.609375 C 116.632812 147.585938 116.386719 148.570312 116.1875 149.570312 C 115.988281 150.566406 115.835938 151.574219 115.734375 152.585938 C 115.636719 153.601562 115.582031 154.617188 115.582031 155.632812 L 115.582031 173.40625 C 115.582031 173.988281 115.640625 174.566406 115.753906 175.140625 C 115.867188 175.710938 116.035156 176.269531 116.257812 176.808594 C 116.480469 177.347656 116.757812 177.859375 117.082031 178.34375 C 117.40625 178.828125 117.773438 179.277344 118.183594 179.691406 C 118.597656 180.101562 119.046875 180.472656 119.53125 180.792969 C 120.015625 181.117188 120.527344 181.394531 121.066406 181.617188 C 121.605469 181.839844 122.164062 182.007812 122.734375 182.121094 C 123.308594 182.234375 123.886719 182.292969 124.46875 182.292969 L 168.898438 182.292969 C 169.480469 182.292969 170.058594 182.234375 170.632812 182.121094 C 171.203125 182.007812 171.761719 181.839844 172.300781 181.617188 C 172.839844 181.394531 173.351562 181.117188 173.835938 180.792969 C 174.320312 180.472656 174.769531 180.101562 175.183594 179.691406 C 175.59375 179.277344 175.960938 178.828125 176.285156 178.34375 C 176.609375 177.859375 176.886719 177.347656 177.109375 176.808594 C 177.332031 176.269531 177.5 175.710938 177.613281 175.140625 C 177.726562 174.566406 177.785156 173.988281 177.785156 173.40625 L 177.785156 155.632812 C 177.785156 154.617188 177.730469 153.601562 177.632812 152.585938 C 177.53125 151.574219 177.378906 150.566406 177.179688 149.570312 C 176.980469 148.570312 176.734375 147.585938 176.4375 146.609375 C 176.140625 145.636719 175.796875 144.679688 175.40625 143.738281 C 175.015625 142.796875 174.582031 141.878906 174.101562 140.980469 C 173.621094 140.082031 173.097656 139.210938 172.53125 138.363281 C 171.964844 137.519531 171.359375 136.699219 170.714844 135.914062 C 170.066406 135.125 169.386719 134.375 168.664062 133.652344 C 167.945312 132.933594 167.191406 132.25 166.402344 131.605469 C 165.617188 130.957031 164.800781 130.351562 163.953125 129.785156 C 163.105469 129.21875 162.234375 128.695312 161.335938 128.214844 C 160.441406 127.734375 159.519531 127.300781 158.578125 126.910156 C 157.640625 126.519531 156.683594 126.175781 155.707031 125.878906 C 154.734375 125.585938 153.746094 125.335938 152.75 125.136719 C 151.75 124.9375 150.746094 124.789062 149.730469 124.6875 C 148.71875 124.585938 147.703125 124.535156 146.683594 124.535156 Z M 146.683594 124.535156 " fill-opacity="1" fill-rule="nonzero"/><path fill="#7b8c8c" d="M 128.910156 173.40625 L 128.910156 155.632812 C 128.914062 154.757812 128.953125 153.878906 129.027344 153.007812 C 129.101562 152.132812 129.214844 151.261719 129.363281 150.394531 C 129.511719 149.53125 129.699219 148.675781 129.917969 147.824219 C 130.140625 146.976562 130.398438 146.136719 130.691406 145.308594 C 130.984375 144.480469 131.308594 143.667969 131.671875 142.867188 C 132.03125 142.066406 132.425781 141.285156 132.855469 140.515625 C 133.28125 139.75 133.738281 139.003906 134.230469 138.273438 C 134.722656 137.546875 135.242188 136.839844 135.792969 136.15625 C 136.34375 135.472656 136.921875 134.8125 137.527344 134.179688 C 138.132812 133.542969 138.765625 132.9375 139.421875 132.355469 C 140.082031 131.773438 140.761719 131.21875 141.464844 130.695312 C 142.171875 130.171875 142.894531 129.679688 143.640625 129.214844 C 144.386719 128.753906 145.152344 128.324219 145.933594 127.925781 C 146.714844 127.527344 147.515625 127.164062 148.328125 126.832031 C 149.140625 126.503906 149.964844 126.207031 150.804688 125.945312 C 151.644531 125.683594 152.492188 125.460938 153.347656 125.269531 C 152.214844 125.019531 151.074219 124.832031 149.921875 124.710938 C 148.769531 124.585938 147.613281 124.527344 146.453125 124.535156 C 145.292969 124.539062 144.136719 124.613281 142.984375 124.746094 C 141.835938 124.882812 140.695312 125.082031 139.566406 125.347656 C 138.433594 125.609375 137.324219 125.9375 136.230469 126.324219 C 135.140625 126.710938 134.070312 127.160156 133.027344 127.667969 C 131.988281 128.175781 130.976562 128.738281 129.996094 129.359375 C 129.019531 129.980469 128.078125 130.65625 127.171875 131.382812 C 126.269531 132.109375 125.410156 132.882812 124.59375 133.707031 C 123.773438 134.53125 123.007812 135.394531 122.285156 136.304688 C 121.566406 137.214844 120.902344 138.160156 120.285156 139.144531 C 119.671875 140.128906 119.117188 141.144531 118.617188 142.1875 C 118.117188 143.234375 117.675781 144.304688 117.296875 145.402344 C 116.917969 146.496094 116.597656 147.609375 116.34375 148.742188 C 116.089844 149.871094 115.898438 151.015625 115.769531 152.167969 C 115.644531 153.320312 115.582031 154.476562 115.582031 155.632812 L 115.582031 173.40625 C 115.582031 173.988281 115.640625 174.566406 115.753906 175.140625 C 115.867188 175.710938 116.035156 176.269531 116.257812 176.808594 C 116.480469 177.347656 116.757812 177.859375 117.082031 178.34375 C 117.40625 178.828125 117.773438 179.277344 118.183594 179.691406 C 118.597656 180.101562 119.046875 180.472656 119.53125 180.792969 C 120.015625 181.117188 120.527344 181.394531 121.066406 181.617188 C 121.605469 181.839844 122.164062 182.007812 122.734375 182.121094 C 123.308594 182.234375 123.886719 182.292969 124.46875 182.292969 L 137.796875 182.292969 C 137.214844 182.292969 136.636719 182.234375 136.0625 182.121094 C 135.492188 182.007812 134.9375 181.839844 134.398438 181.617188 C 133.859375 181.394531 133.347656 181.117188 132.859375 180.792969 C 132.375 180.472656 131.925781 180.101562 131.515625 179.691406 C 131.101562 179.277344 130.734375 178.828125 130.410156 178.34375 C 130.085938 177.859375 129.8125 177.347656 129.589844 176.808594 C 129.363281 176.269531 129.195312 175.710938 129.082031 175.140625 C 128.96875 174.566406 128.910156 173.988281 128.910156 173.40625 Z M 128.910156 173.40625 " fill-opacity="1" fill-rule="nonzero"/><path fill="#8fa5a5" d="M 168.898438 106.761719 C 168.898438 107.488281 168.863281 108.214844 168.792969 108.9375 C 168.71875 109.664062 168.613281 110.382812 168.472656 111.09375 C 168.328125 111.808594 168.152344 112.515625 167.941406 113.210938 C 167.730469 113.90625 167.484375 114.589844 167.207031 115.261719 C 166.929688 115.933594 166.617188 116.59375 166.273438 117.234375 C 165.933594 117.875 165.558594 118.5 165.15625 119.105469 C 164.75 119.707031 164.316406 120.292969 163.855469 120.855469 C 163.394531 121.417969 162.90625 121.957031 162.390625 122.46875 C 161.878906 122.984375 161.339844 123.472656 160.777344 123.933594 C 160.214844 124.394531 159.628906 124.828125 159.027344 125.234375 C 158.421875 125.636719 157.796875 126.011719 157.15625 126.351562 C 156.515625 126.695312 155.855469 127.007812 155.183594 127.285156 C 154.511719 127.5625 153.828125 127.808594 153.132812 128.019531 C 152.4375 128.230469 151.730469 128.40625 151.015625 128.550781 C 150.304688 128.691406 149.585938 128.796875 148.859375 128.871094 C 148.136719 128.941406 147.410156 128.976562 146.683594 128.976562 C 145.957031 128.976562 145.230469 128.941406 144.507812 128.871094 C 143.78125 128.796875 143.0625 128.691406 142.351562 128.550781 C 141.636719 128.40625 140.929688 128.230469 140.234375 128.019531 C 139.539062 127.808594 138.855469 127.5625 138.183594 127.285156 C 137.511719 127.007812 136.851562 126.695312 136.210938 126.351562 C 135.570312 126.011719 134.945312 125.636719 134.339844 125.234375 C 133.738281 124.828125 133.152344 124.394531 132.589844 123.933594 C 132.027344 123.472656 131.488281 122.984375 130.976562 122.46875 C 130.460938 121.957031 129.972656 121.417969 129.511719 120.855469 C 129.050781 120.292969 128.617188 119.707031 128.210938 119.105469 C 127.808594 118.5 127.433594 117.875 127.089844 117.234375 C 126.75 116.59375 126.4375 115.933594 126.160156 115.261719 C 125.882812 114.589844 125.636719 113.90625 125.425781 113.210938 C 125.214844 112.515625 125.039062 111.808594 124.894531 111.09375 C 124.753906 110.382812 124.648438 109.664062 124.574219 108.9375 C 124.503906 108.214844 124.46875 107.488281 124.46875 106.761719 C 124.46875 106.035156 124.503906 105.308594 124.574219 104.585938 C 124.648438 103.859375 124.753906 103.140625 124.894531 102.429688 C 125.039062 101.714844 125.214844 101.007812 125.425781 100.3125 C 125.636719 99.617188 125.882812 98.933594 126.160156 98.261719 C 126.4375 97.589844 126.75 96.929688 127.089844 96.289062 C 127.433594 95.648438 127.808594 95.023438 128.210938 94.417969 C 128.617188 93.816406 129.050781 93.230469 129.511719 92.667969 C 129.972656 92.105469 130.460938 91.566406 130.976562 91.054688 C 131.488281 90.539062 132.027344 90.050781 132.589844 89.589844 C 133.152344 89.128906 133.738281 88.695312 134.339844 88.289062 C 134.945312 87.886719 135.570312 87.511719 136.210938 87.167969 C 136.851562 86.828125 137.511719 86.515625 138.183594 86.238281 C 138.855469 85.960938 139.539062 85.714844 140.234375 85.503906 C 140.929688 85.292969 141.636719 85.117188 142.351562 84.972656 C 143.0625 84.832031 143.78125 84.726562 144.507812 84.652344 C 145.230469 84.582031 145.957031 84.546875 146.683594 84.546875 C 147.410156 84.546875 148.136719 84.582031 148.859375 84.652344 C 149.585938 84.726562 150.304688 84.832031 151.015625 84.972656 C 151.730469 85.117188 152.4375 85.292969 153.132812 85.503906 C 153.828125 85.714844 154.511719 85.960938 155.183594 86.238281 C 155.855469 86.515625 156.515625 86.828125 157.15625 87.167969 C 157.796875 87.511719 158.421875 87.886719 159.027344 88.289062 C 159.628906 88.695312 160.214844 89.128906 160.777344 89.589844 C 161.339844 90.050781 161.878906 90.539062 162.390625 91.054688 C 162.90625 91.566406 163.394531 92.105469 163.855469 92.667969 C 164.316406 93.230469 164.75 93.816406 165.15625 94.417969 C 165.558594 95.023438 165.933594 95.648438 166.273438 96.289062 C 166.617188 96.929688 166.929688 97.589844 167.207031 98.261719 C 167.484375 98.933594 167.730469 99.617188 167.941406 100.3125 C 168.152344 101.007812 168.328125 101.714844 168.472656 102.429688 C 168.613281 103.140625 168.71875 103.859375 168.792969 104.585938 C 168.863281 105.308594 168.898438 106.035156 168.898438 106.761719 Z M 168.898438 106.761719 " fill-opacity="1" fill-rule="nonzero"/><path fill="#7b8c8c" d="M 153.347656 120.089844 C 152.363281 120.089844 151.382812 120.015625 150.410156 119.871094 C 149.4375 119.726562 148.480469 119.511719 147.539062 119.222656 C 146.597656 118.9375 145.679688 118.582031 144.792969 118.160156 C 143.902344 117.738281 143.046875 117.253906 142.230469 116.707031 C 141.414062 116.15625 140.640625 115.554688 139.910156 114.890625 C 139.183594 114.230469 138.507812 113.515625 137.882812 112.753906 C 137.261719 111.992188 136.695312 111.1875 136.191406 110.34375 C 135.6875 109.5 135.25 108.621094 134.875 107.710938 C 134.5 106.800781 134.191406 105.867188 133.957031 104.910156 C 133.71875 103.957031 133.554688 102.988281 133.460938 102.007812 C 133.363281 101.027344 133.34375 100.046875 133.394531 99.066406 C 133.445312 98.082031 133.566406 97.105469 133.761719 96.140625 C 133.957031 95.175781 134.222656 94.230469 134.554688 93.304688 C 134.890625 92.378906 135.292969 91.484375 135.757812 90.617188 C 136.222656 89.75 136.753906 88.921875 137.339844 88.132812 C 137.929688 87.34375 138.574219 86.605469 139.273438 85.910156 C 138.832031 86.066406 138.398438 86.234375 137.96875 86.414062 C 137.542969 86.597656 137.117188 86.792969 136.703125 87.003906 C 136.285156 87.210938 135.875 87.433594 135.472656 87.667969 C 135.070312 87.902344 134.675781 88.148438 134.289062 88.40625 C 133.902344 88.667969 133.523438 88.9375 133.152344 89.222656 C 132.78125 89.503906 132.421875 89.800781 132.070312 90.105469 C 131.71875 90.414062 131.378906 90.730469 131.046875 91.058594 C 130.714844 91.386719 130.394531 91.722656 130.085938 92.070312 C 129.773438 92.417969 129.476562 92.777344 129.1875 93.140625 C 128.902344 93.507812 128.625 93.882812 128.363281 94.269531 C 128.097656 94.652344 127.847656 95.042969 127.609375 95.445312 C 127.367188 95.84375 127.140625 96.25 126.929688 96.664062 C 126.714844 97.078125 126.515625 97.5 126.328125 97.925781 C 126.140625 98.355469 125.96875 98.785156 125.808594 99.222656 C 125.648438 99.664062 125.503906 100.105469 125.371094 100.550781 C 125.238281 101 125.121094 101.449219 125.019531 101.902344 C 124.917969 102.359375 124.828125 102.816406 124.753906 103.273438 C 124.679688 103.734375 124.617188 104.195312 124.574219 104.660156 C 124.527344 105.125 124.496094 105.589844 124.480469 106.054688 C 124.464844 106.519531 124.464844 106.984375 124.476562 107.453125 C 124.492188 107.917969 124.519531 108.382812 124.5625 108.847656 C 124.605469 109.3125 124.660156 109.773438 124.734375 110.234375 C 124.804688 110.695312 124.890625 111.152344 124.992188 111.605469 C 125.09375 112.0625 125.207031 112.511719 125.335938 112.960938 C 125.464844 113.40625 125.609375 113.851562 125.765625 114.289062 C 125.921875 114.726562 126.09375 115.160156 126.277344 115.589844 C 126.464844 116.015625 126.660156 116.4375 126.871094 116.855469 C 127.082031 117.269531 127.308594 117.679688 127.542969 118.078125 C 127.78125 118.480469 128.03125 118.875 128.292969 119.261719 C 128.554688 119.644531 128.828125 120.023438 129.113281 120.390625 C 129.398438 120.757812 129.695312 121.117188 130.003906 121.46875 C 130.3125 121.816406 130.628906 122.15625 130.960938 122.484375 C 131.289062 122.816406 131.628906 123.132812 131.976562 123.441406 C 132.328125 123.75 132.6875 124.046875 133.054688 124.332031 C 133.421875 124.617188 133.800781 124.890625 134.183594 125.152344 C 134.570312 125.414062 134.964844 125.664062 135.367188 125.902344 C 135.765625 126.136719 136.175781 126.363281 136.589844 126.574219 C 137.007812 126.785156 137.429688 126.980469 137.855469 127.167969 C 138.285156 127.351562 138.71875 127.523438 139.15625 127.679688 C 139.59375 127.835938 140.039062 127.980469 140.484375 128.109375 C 140.933594 128.238281 141.382812 128.351562 141.839844 128.453125 C 142.292969 128.554688 142.75 128.640625 143.210938 128.710938 C 143.671875 128.785156 144.132812 128.839844 144.597656 128.882812 C 145.0625 128.925781 145.527344 128.953125 145.992188 128.96875 C 146.460938 128.980469 146.925781 128.980469 147.390625 128.964844 C 147.855469 128.949219 148.320312 128.917969 148.785156 128.871094 C 149.25 128.828125 149.710938 128.765625 150.171875 128.691406 C 150.628906 128.617188 151.085938 128.527344 151.542969 128.425781 C 151.996094 128.324219 152.445312 128.207031 152.894531 128.074219 C 153.339844 127.941406 153.78125 127.796875 154.222656 127.636719 C 154.660156 127.476562 155.089844 127.304688 155.519531 127.117188 C 155.945312 126.929688 156.363281 126.730469 156.78125 126.515625 C 157.195312 126.304688 157.601562 126.078125 158 125.835938 C 158.402344 125.597656 158.792969 125.347656 159.175781 125.082031 C 159.5625 124.820312 159.9375 124.542969 160.304688 124.257812 C 160.667969 123.96875 161.027344 123.671875 161.375 123.359375 C 161.722656 123.050781 162.058594 122.730469 162.386719 122.398438 C 162.714844 122.066406 163.03125 121.726562 163.339844 121.375 C 163.644531 121.023438 163.9375 120.660156 164.222656 120.292969 C 164.507812 119.921875 164.777344 119.542969 165.035156 119.15625 C 165.296875 118.769531 165.542969 118.375 165.777344 117.972656 C 166.011719 117.570312 166.234375 117.160156 166.441406 116.742188 C 166.652344 116.328125 166.847656 115.902344 167.03125 115.476562 C 167.210938 115.046875 167.378906 114.613281 167.535156 114.171875 C 166.605469 115.109375 165.597656 115.949219 164.503906 116.6875 C 163.410156 117.425781 162.253906 118.046875 161.035156 118.554688 C 159.816406 119.0625 158.5625 119.445312 157.269531 119.707031 C 155.972656 119.964844 154.667969 120.09375 153.347656 120.089844 Z M 153.347656 120.089844 " fill-opacity="1" fill-rule="nonzero"/><path fill="#8fa5a5" d="M 40.050781 124.535156 C 39.035156 124.535156 38.019531 124.585938 37.003906 124.6875 C 35.992188 124.789062 34.984375 124.9375 33.988281 125.136719 C 32.988281 125.335938 32 125.585938 31.027344 125.878906 C 30.054688 126.175781 29.097656 126.519531 28.15625 126.910156 C 27.214844 127.300781 26.296875 127.734375 25.398438 128.214844 C 24.5 128.695312 23.628906 129.21875 22.78125 129.785156 C 21.933594 130.351562 21.117188 130.957031 20.332031 131.605469 C 19.542969 132.25 18.789062 132.933594 18.070312 133.652344 C 17.351562 134.375 16.667969 135.125 16.019531 135.914062 C 15.375 136.699219 14.769531 137.519531 14.203125 138.363281 C 13.636719 139.210938 13.113281 140.082031 12.632812 140.980469 C 12.152344 141.878906 11.71875 142.796875 11.328125 143.738281 C 10.9375 144.679688 10.59375 145.636719 10.296875 146.609375 C 10 147.585938 9.753906 148.570312 9.554688 149.570312 C 9.355469 150.566406 9.203125 151.574219 9.105469 152.585938 C 9.003906 153.601562 8.953125 154.617188 8.949219 155.632812 L 8.949219 173.40625 C 8.949219 173.988281 9.007812 174.566406 9.121094 175.140625 C 9.234375 175.710938 9.402344 176.269531 9.628906 176.808594 C 9.851562 177.347656 10.125 177.859375 10.449219 178.34375 C 10.773438 178.828125 11.140625 179.277344 11.554688 179.691406 C 11.964844 180.101562 12.414062 180.472656 12.898438 180.792969 C 13.386719 181.117188 13.898438 181.394531 14.4375 181.617188 C 14.976562 181.839844 15.53125 182.007812 16.101562 182.121094 C 16.675781 182.234375 17.253906 182.292969 17.835938 182.292969 L 62.265625 182.292969 C 62.851562 182.292969 63.429688 182.234375 64 182.121094 C 64.574219 182.007812 65.128906 181.839844 65.667969 181.617188 C 66.207031 181.394531 66.71875 181.117188 67.203125 180.792969 C 67.6875 180.472656 68.136719 180.101562 68.550781 179.691406 C 68.960938 179.277344 69.332031 178.828125 69.65625 178.34375 C 69.980469 177.859375 70.253906 177.347656 70.476562 176.808594 C 70.699219 176.269531 70.867188 175.710938 70.980469 175.140625 C 71.097656 174.566406 71.152344 173.988281 71.152344 173.40625 L 71.152344 155.632812 C 71.152344 154.617188 71.101562 153.601562 71 152.585938 C 70.898438 151.574219 70.75 150.566406 70.550781 149.570312 C 70.351562 148.570312 70.101562 147.585938 69.804688 146.609375 C 69.507812 145.636719 69.167969 144.679688 68.777344 143.738281 C 68.386719 142.796875 67.949219 141.878906 67.46875 140.980469 C 66.988281 140.082031 66.464844 139.210938 65.902344 138.363281 C 65.335938 137.519531 64.726562 136.699219 64.082031 135.914062 C 63.4375 135.125 62.753906 134.375 62.03125 133.652344 C 61.3125 132.933594 60.558594 132.25 59.773438 131.605469 C 58.984375 130.957031 58.167969 130.351562 57.320312 129.785156 C 56.476562 129.21875 55.605469 128.695312 54.707031 128.214844 C 53.808594 127.734375 52.890625 127.300781 51.949219 126.910156 C 51.007812 126.519531 50.050781 126.175781 49.074219 125.878906 C 48.101562 125.585938 47.117188 125.335938 46.117188 125.136719 C 45.117188 124.9375 44.113281 124.789062 43.097656 124.6875 C 42.085938 124.585938 41.070312 124.535156 40.050781 124.535156 Z M 40.050781 124.535156 " fill-opacity="1" fill-rule="nonzero"/><path fill="#7b8c8c" d="M 22.28125 173.40625 L 22.28125 155.632812 C 22.28125 154.757812 22.320312 153.878906 22.394531 153.007812 C 22.46875 152.132812 22.582031 151.261719 22.730469 150.394531 C 22.878906 149.53125 23.066406 148.675781 23.289062 147.824219 C 23.507812 146.976562 23.765625 146.136719 24.058594 145.308594 C 24.351562 144.480469 24.675781 143.667969 25.039062 142.867188 C 25.398438 142.066406 25.792969 141.285156 26.222656 140.515625 C 26.648438 139.75 27.109375 139.003906 27.597656 138.273438 C 28.089844 137.546875 28.609375 136.839844 29.160156 136.15625 C 29.710938 135.472656 30.289062 134.8125 30.894531 134.179688 C 31.5 133.542969 32.132812 132.9375 32.792969 132.355469 C 33.449219 131.773438 34.128906 131.21875 34.835938 130.695312 C 35.539062 130.171875 36.261719 129.679688 37.007812 129.214844 C 37.753906 128.753906 38.519531 128.324219 39.300781 127.925781 C 40.085938 127.527344 40.882812 127.164062 41.695312 126.832031 C 42.507812 126.503906 43.335938 126.207031 44.171875 125.945312 C 45.011719 125.683594 45.859375 125.460938 46.714844 125.269531 C 45.585938 125.019531 44.441406 124.832031 43.289062 124.710938 C 42.136719 124.585938 40.980469 124.527344 39.820312 124.535156 C 38.660156 124.539062 37.503906 124.609375 36.355469 124.746094 C 35.203125 124.882812 34.0625 125.082031 32.933594 125.347656 C 31.804688 125.609375 30.691406 125.9375 29.601562 126.324219 C 28.507812 126.710938 27.441406 127.160156 26.398438 127.667969 C 25.355469 128.175781 24.34375 128.738281 23.363281 129.359375 C 22.386719 129.980469 21.445312 130.65625 20.539062 131.382812 C 19.636719 132.109375 18.777344 132.882812 17.960938 133.707031 C 17.144531 134.53125 16.375 135.394531 15.65625 136.304688 C 14.933594 137.214844 14.269531 138.160156 13.65625 139.144531 C 13.042969 140.128906 12.484375 141.140625 11.984375 142.1875 C 11.484375 143.234375 11.042969 144.304688 10.664062 145.402344 C 10.285156 146.496094 9.96875 147.609375 9.710938 148.742188 C 9.457031 149.871094 9.265625 151.015625 9.136719 152.167969 C 9.011719 153.320312 8.949219 154.476562 8.949219 155.632812 L 8.949219 173.40625 C 8.949219 173.988281 9.007812 174.566406 9.121094 175.140625 C 9.234375 175.710938 9.402344 176.269531 9.628906 176.808594 C 9.851562 177.347656 10.125 177.859375 10.449219 178.34375 C 10.773438 178.828125 11.140625 179.277344 11.554688 179.691406 C 11.964844 180.101562 12.414062 180.472656 12.898438 180.792969 C 13.386719 181.117188 13.898438 181.394531 14.4375 181.617188 C 14.976562 181.839844 15.53125 182.007812 16.101562 182.121094 C 16.675781 182.234375 17.253906 182.292969 17.835938 182.292969 L 31.164062 182.292969 C 30.582031 182.292969 30.003906 182.234375 29.433594 182.121094 C 28.859375 182.007812 28.304688 181.839844 27.765625 181.617188 C 27.226562 181.394531 26.714844 181.117188 26.230469 180.792969 C 25.742188 180.472656 25.296875 180.101562 24.882812 179.691406 C 24.46875 179.277344 24.101562 178.828125 23.777344 178.34375 C 23.453125 177.859375 23.179688 177.347656 22.957031 176.808594 C 22.734375 176.269531 22.566406 175.710938 22.449219 175.140625 C 22.335938 174.566406 22.28125 173.988281 22.28125 173.40625 Z M 22.28125 173.40625 " fill-opacity="1" fill-rule="nonzero"/><path fill="#8fa5a5" d="M 62.265625 106.761719 C 62.265625 107.488281 62.230469 108.214844 62.160156 108.9375 C 62.089844 109.664062 61.980469 110.382812 61.839844 111.09375 C 61.699219 111.808594 61.519531 112.515625 61.308594 113.210938 C 61.097656 113.90625 60.855469 114.589844 60.574219 115.261719 C 60.296875 115.933594 59.988281 116.59375 59.644531 117.234375 C 59.300781 117.875 58.925781 118.5 58.523438 119.105469 C 58.117188 119.707031 57.6875 120.292969 57.222656 120.855469 C 56.761719 121.417969 56.273438 121.957031 55.761719 122.46875 C 55.246094 122.984375 54.707031 123.472656 54.144531 123.933594 C 53.582031 124.394531 53 124.828125 52.394531 125.234375 C 51.789062 125.636719 51.164062 126.011719 50.523438 126.351562 C 49.882812 126.695312 49.226562 127.007812 48.554688 127.285156 C 47.882812 127.5625 47.195312 127.808594 46.5 128.019531 C 45.804688 128.230469 45.097656 128.40625 44.386719 128.550781 C 43.671875 128.691406 42.953125 128.796875 42.230469 128.871094 C 41.503906 128.941406 40.78125 128.976562 40.050781 128.976562 C 39.324219 128.976562 38.597656 128.941406 37.875 128.871094 C 37.148438 128.796875 36.429688 128.691406 35.71875 128.550781 C 35.003906 128.40625 34.300781 128.230469 33.601562 128.019531 C 32.90625 127.808594 32.222656 127.5625 31.550781 127.285156 C 30.878906 127.007812 30.222656 126.695312 29.578125 126.351562 C 28.9375 126.011719 28.316406 125.636719 27.710938 125.234375 C 27.105469 124.828125 26.519531 124.394531 25.957031 123.933594 C 25.394531 123.472656 24.859375 122.984375 24.34375 122.46875 C 23.828125 121.957031 23.339844 121.417969 22.878906 120.855469 C 22.417969 120.292969 21.984375 119.707031 21.582031 119.105469 C 21.175781 118.5 20.804688 117.875 20.460938 117.234375 C 20.117188 116.59375 19.804688 115.933594 19.527344 115.261719 C 19.25 114.589844 19.003906 113.90625 18.792969 113.210938 C 18.582031 112.515625 18.40625 111.808594 18.265625 111.09375 C 18.121094 110.382812 18.015625 109.664062 17.945312 108.9375 C 17.871094 108.214844 17.835938 107.488281 17.835938 106.761719 C 17.835938 106.035156 17.871094 105.308594 17.945312 104.585938 C 18.015625 103.859375 18.121094 103.140625 18.265625 102.429688 C 18.40625 101.714844 18.582031 101.007812 18.792969 100.3125 C 19.003906 99.617188 19.25 98.933594 19.527344 98.261719 C 19.804688 97.589844 20.117188 96.929688 20.460938 96.289062 C 20.804688 95.648438 21.175781 95.023438 21.582031 94.417969 C 21.984375 93.816406 22.417969 93.230469 22.878906 92.667969 C 23.339844 92.105469 23.828125 91.566406 24.34375 91.054688 C 24.859375 90.539062 25.394531 90.050781 25.957031 89.589844 C 26.519531 89.128906 27.105469 88.695312 27.710938 88.289062 C 28.316406 87.886719 28.9375 87.511719 29.578125 87.167969 C 30.222656 86.828125 30.878906 86.515625 31.550781 86.238281 C 32.222656 85.960938 32.90625 85.714844 33.601562 85.503906 C 34.300781 85.292969 35.003906 85.117188 35.71875 84.972656 C 36.429688 84.832031 37.148438 84.726562 37.875 84.652344 C 38.597656 84.582031 39.324219 84.546875 40.050781 84.546875 C 40.78125 84.546875 41.503906 84.582031 42.230469 84.652344 C 42.953125 84.726562 43.671875 84.832031 44.386719 84.972656 C 45.097656 85.117188 45.804688 85.292969 46.5 85.503906 C 47.195312 85.714844 47.882812 85.960938 48.554688 86.238281 C 49.226562 86.515625 49.882812 86.828125 50.523438 87.167969 C 51.164062 87.511719 51.789062 87.886719 52.394531 88.289062 C 53 88.695312 53.582031 89.128906 54.144531 89.589844 C 54.707031 90.050781 55.246094 90.539062 55.761719 91.054688 C 56.273438 91.566406 56.761719 92.105469 57.222656 92.667969 C 57.6875 93.230469 58.117188 93.816406 58.523438 94.417969 C 58.925781 95.023438 59.300781 95.648438 59.644531 96.289062 C 59.988281 96.929688 60.296875 97.589844 60.574219 98.261719 C 60.855469 98.933594 61.097656 99.617188 61.308594 100.3125 C 61.519531 101.007812 61.699219 101.714844 61.839844 102.429688 C 61.980469 103.140625 62.089844 103.859375 62.160156 104.585938 C 62.230469 105.308594 62.265625 106.035156 62.265625 106.761719 Z M 62.265625 106.761719 " fill-opacity="1" fill-rule="nonzero"/><path fill="#7b8c8c" d="M 46.714844 120.089844 C 45.730469 120.089844 44.753906 120.015625 43.78125 119.871094 C 42.804688 119.726562 41.847656 119.511719 40.90625 119.222656 C 39.964844 118.9375 39.050781 118.582031 38.160156 118.160156 C 37.269531 117.738281 36.417969 117.253906 35.597656 116.707031 C 34.78125 116.15625 34.007812 115.554688 33.28125 114.890625 C 32.550781 114.230469 31.875 113.515625 31.253906 112.753906 C 30.628906 111.992188 30.066406 111.1875 29.5625 110.34375 C 29.054688 109.5 28.617188 108.621094 28.242188 107.710938 C 27.867188 106.800781 27.5625 105.867188 27.324219 104.910156 C 27.085938 103.957031 26.921875 102.988281 26.828125 102.007812 C 26.734375 101.027344 26.710938 100.046875 26.761719 99.066406 C 26.8125 98.082031 26.9375 97.105469 27.132812 96.140625 C 27.324219 95.175781 27.589844 94.230469 27.925781 93.304688 C 28.257812 92.378906 28.660156 91.484375 29.125 90.617188 C 29.59375 89.75 30.121094 88.921875 30.710938 88.132812 C 31.296875 87.34375 31.941406 86.605469 32.640625 85.910156 C 32.203125 86.066406 31.765625 86.234375 31.339844 86.414062 C 30.910156 86.597656 30.488281 86.792969 30.070312 87.003906 C 29.652344 87.210938 29.242188 87.433594 28.839844 87.667969 C 28.4375 87.902344 28.042969 88.148438 27.65625 88.40625 C 27.269531 88.667969 26.890625 88.9375 26.519531 89.222656 C 26.152344 89.503906 25.789062 89.800781 25.441406 90.105469 C 25.089844 90.414062 24.746094 90.730469 24.414062 91.058594 C 24.085938 91.386719 23.761719 91.722656 23.453125 92.070312 C 23.144531 92.417969 22.84375 92.777344 22.558594 93.140625 C 22.269531 93.507812 21.992188 93.882812 21.730469 94.269531 C 21.464844 94.652344 21.214844 95.042969 20.976562 95.445312 C 20.738281 95.84375 20.511719 96.25 20.296875 96.664062 C 20.082031 97.078125 19.882812 97.5 19.695312 97.925781 C 19.511719 98.355469 19.335938 98.785156 19.175781 99.222656 C 19.015625 99.664062 18.871094 100.105469 18.738281 100.550781 C 18.609375 101 18.492188 101.449219 18.386719 101.902344 C 18.285156 102.359375 18.195312 102.816406 18.121094 103.273438 C 18.046875 103.734375 17.988281 104.195312 17.941406 104.660156 C 17.894531 105.125 17.867188 105.589844 17.847656 106.054688 C 17.832031 106.519531 17.832031 106.984375 17.84375 107.453125 C 17.859375 107.917969 17.886719 108.382812 17.929688 108.847656 C 17.972656 109.3125 18.03125 109.773438 18.101562 110.234375 C 18.171875 110.695312 18.257812 111.152344 18.359375 111.605469 C 18.460938 112.0625 18.574219 112.511719 18.707031 112.960938 C 18.835938 113.40625 18.976562 113.851562 19.136719 114.289062 C 19.292969 114.726562 19.460938 115.160156 19.648438 115.589844 C 19.832031 116.015625 20.03125 116.4375 20.242188 116.855469 C 20.453125 117.269531 20.675781 117.679688 20.914062 118.078125 C 21.148438 118.480469 21.398438 118.875 21.660156 119.261719 C 21.921875 119.644531 22.195312 120.023438 22.480469 120.390625 C 22.765625 120.757812 23.0625 121.117188 23.371094 121.46875 C 23.679688 121.816406 23.996094 122.15625 24.328125 122.484375 C 24.65625 122.816406 24.996094 123.132812 25.347656 123.441406 C 25.695312 123.75 26.054688 124.046875 26.421875 124.332031 C 26.792969 124.617188 27.167969 124.890625 27.554688 125.152344 C 27.9375 125.414062 28.332031 125.664062 28.734375 125.902344 C 29.136719 126.136719 29.542969 126.363281 29.960938 126.574219 C 30.375 126.785156 30.796875 126.980469 31.222656 127.167969 C 31.652344 127.351562 32.085938 127.523438 32.523438 127.679688 C 32.960938 127.835938 33.40625 127.980469 33.851562 128.109375 C 34.300781 128.238281 34.753906 128.351562 35.207031 128.453125 C 35.664062 128.554688 36.121094 128.640625 36.582031 128.710938 C 37.039062 128.785156 37.503906 128.839844 37.96875 128.882812 C 38.429688 128.925781 38.894531 128.953125 39.363281 128.96875 C 39.828125 128.980469 40.292969 128.980469 40.757812 128.964844 C 41.222656 128.949219 41.6875 128.917969 42.152344 128.871094 C 42.617188 128.828125 43.078125 128.765625 43.539062 128.691406 C 44 128.617188 44.457031 128.527344 44.910156 128.425781 C 45.363281 128.324219 45.816406 128.207031 46.261719 128.074219 C 46.710938 127.941406 47.152344 127.796875 47.589844 127.636719 C 48.027344 127.476562 48.460938 127.304688 48.886719 127.117188 C 49.3125 126.929688 49.734375 126.730469 50.148438 126.515625 C 50.5625 126.304688 50.96875 126.078125 51.367188 125.835938 C 51.769531 125.597656 52.160156 125.347656 52.546875 125.082031 C 52.929688 124.820312 53.304688 124.542969 53.671875 124.257812 C 54.039062 123.96875 54.394531 123.671875 54.742188 123.359375 C 55.089844 123.050781 55.429688 122.730469 55.757812 122.398438 C 56.082031 122.066406 56.402344 121.726562 56.707031 121.375 C 57.011719 121.023438 57.308594 120.660156 57.589844 120.292969 C 57.875 119.921875 58.144531 119.542969 58.40625 119.15625 C 58.664062 118.769531 58.910156 118.375 59.144531 117.972656 C 59.382812 117.570312 59.601562 117.160156 59.8125 116.742188 C 60.019531 116.328125 60.214844 115.902344 60.398438 115.476562 C 60.578125 115.046875 60.75 114.613281 60.902344 114.171875 C 59.976562 115.109375 58.964844 115.949219 57.871094 116.6875 C 56.777344 117.425781 55.621094 118.046875 54.402344 118.554688 C 53.1875 119.0625 51.929688 119.445312 50.636719 119.707031 C 49.34375 119.964844 48.035156 120.09375 46.714844 120.089844 Z M 46.714844 120.089844 " fill-opacity="1" fill-rule="nonzero"/><g clip-path="url(#f4bb884e78)"><path fill="#2d4a60" d="M 93.367188 124.535156 C 92.203125 124.535156 91.042969 124.59375 89.886719 124.707031 C 88.726562 124.824219 87.578125 124.996094 86.4375 125.222656 C 85.296875 125.453125 84.167969 125.734375 83.054688 126.074219 C 81.941406 126.410156 80.847656 126.804688 79.773438 127.25 C 78.695312 127.695312 77.644531 128.191406 76.621094 128.742188 C 75.59375 129.292969 74.597656 129.890625 73.628906 130.535156 C 72.664062 131.183594 71.730469 131.875 70.828125 132.613281 C 69.929688 133.351562 69.070312 134.132812 68.246094 134.957031 C 67.421875 135.777344 66.640625 136.640625 65.902344 137.539062 C 65.164062 138.4375 64.472656 139.371094 63.828125 140.339844 C 63.179688 141.308594 62.582031 142.304688 62.03125 143.332031 C 61.484375 144.355469 60.984375 145.40625 60.539062 146.480469 C 60.09375 147.554688 59.703125 148.652344 59.363281 149.765625 C 59.023438 150.878906 58.742188 152.003906 58.511719 153.144531 C 58.285156 154.289062 58.113281 155.4375 58 156.59375 C 57.882812 157.753906 57.824219 158.914062 57.824219 160.078125 L 57.824219 173.40625 C 57.824219 174.28125 57.910156 175.148438 58.078125 176.007812 C 58.25 176.863281 58.503906 177.699219 58.839844 178.507812 C 59.171875 179.316406 59.582031 180.082031 60.070312 180.8125 C 60.554688 181.539062 61.109375 182.210938 61.726562 182.832031 C 62.347656 183.449219 63.019531 184.003906 63.746094 184.488281 C 64.476562 184.976562 65.242188 185.386719 66.050781 185.722656 C 66.859375 186.054688 67.695312 186.308594 68.550781 186.480469 C 69.410156 186.648438 70.277344 186.734375 71.152344 186.734375 L 115.582031 186.734375 C 116.457031 186.734375 117.324219 186.648438 118.183594 186.480469 C 119.042969 186.308594 119.875 186.054688 120.683594 185.722656 C 121.492188 185.386719 122.261719 184.976562 122.988281 184.488281 C 123.714844 184.003906 124.390625 183.449219 125.007812 182.832031 C 125.625 182.210938 126.179688 181.539062 126.664062 180.8125 C 127.152344 180.082031 127.5625 179.316406 127.898438 178.507812 C 128.230469 177.699219 128.484375 176.863281 128.65625 176.007812 C 128.828125 175.148438 128.910156 174.28125 128.910156 173.40625 L 128.910156 160.078125 C 128.910156 158.914062 128.851562 157.753906 128.738281 156.59375 C 128.621094 155.4375 128.449219 154.289062 128.222656 153.144531 C 127.992188 152.003906 127.710938 150.878906 127.371094 149.765625 C 127.035156 148.652344 126.640625 147.554688 126.195312 146.480469 C 125.75 145.40625 125.25 144.355469 124.703125 143.332031 C 124.152344 142.304688 123.554688 141.308594 122.910156 140.339844 C 122.261719 139.371094 121.570312 138.4375 120.832031 137.539062 C 120.09375 136.640625 119.3125 135.777344 118.488281 134.957031 C 117.667969 134.132812 116.804688 133.351562 115.90625 132.613281 C 115.007812 131.875 114.074219 131.183594 113.105469 130.535156 C 112.136719 129.890625 111.140625 129.292969 110.113281 128.742188 C 109.089844 128.191406 108.039062 127.695312 106.964844 127.25 C 105.890625 126.804688 104.792969 126.410156 103.679688 126.074219 C 102.566406 125.734375 101.441406 125.453125 100.300781 125.222656 C 99.15625 124.996094 98.007812 124.824219 96.851562 124.707031 C 95.691406 124.59375 94.53125 124.535156 93.367188 124.535156 Z M 93.367188 124.535156 " fill-opacity="1" fill-rule="nonzero"/></g><g clip-path="url(#00374135e8)"><path fill="#263f52" d="M 71.152344 173.40625 L 71.152344 160.078125 C 71.15625 159.054688 71.199219 158.03125 71.289062 157.011719 C 71.378906 155.992188 71.511719 154.980469 71.691406 153.972656 C 71.867188 152.964844 72.085938 151.964844 72.351562 150.976562 C 72.613281 149.988281 72.917969 149.011719 73.265625 148.046875 C 73.613281 147.085938 74.003906 146.140625 74.433594 145.210938 C 74.863281 144.28125 75.328125 143.371094 75.835938 142.484375 C 76.34375 141.59375 76.890625 140.730469 77.472656 139.886719 C 78.054688 139.046875 78.671875 138.230469 79.324219 137.441406 C 79.976562 136.652344 80.664062 135.894531 81.378906 135.164062 C 82.097656 134.4375 82.847656 133.738281 83.625 133.074219 C 84.402344 132.410156 85.207031 131.78125 86.039062 131.183594 C 86.875 130.589844 87.730469 130.03125 88.609375 129.507812 C 89.492188 128.988281 90.394531 128.503906 91.316406 128.0625 C 92.238281 127.617188 93.175781 127.214844 94.132812 126.851562 C 95.089844 126.488281 96.0625 126.167969 97.046875 125.890625 C 98.03125 125.609375 99.027344 125.375 100.03125 125.183594 C 98.75 124.933594 97.460938 124.757812 96.160156 124.648438 C 94.859375 124.542969 93.554688 124.511719 92.25 124.546875 C 90.949219 124.585938 89.648438 124.695312 88.355469 124.875 C 87.0625 125.058594 85.785156 125.308594 84.519531 125.632812 C 83.257812 125.953125 82.011719 126.34375 80.792969 126.804688 C 79.570312 127.265625 78.378906 127.789062 77.214844 128.382812 C 76.050781 128.972656 74.925781 129.625 73.832031 130.339844 C 72.742188 131.058594 71.691406 131.832031 70.6875 132.664062 C 69.683594 133.492188 68.726562 134.378906 67.816406 135.316406 C 66.910156 136.253906 66.054688 137.238281 65.253906 138.269531 C 64.457031 139.300781 63.714844 140.371094 63.035156 141.484375 C 62.351562 142.597656 61.734375 143.746094 61.179688 144.925781 C 60.628906 146.109375 60.140625 147.316406 59.71875 148.550781 C 59.296875 149.789062 58.945312 151.042969 58.664062 152.316406 C 58.382812 153.589844 58.167969 154.875 58.03125 156.175781 C 57.890625 157.472656 57.820312 158.773438 57.824219 160.078125 L 57.824219 173.40625 C 57.824219 174.28125 57.910156 175.148438 58.078125 176.007812 C 58.25 176.863281 58.503906 177.699219 58.839844 178.507812 C 59.171875 179.316406 59.582031 180.082031 60.070312 180.8125 C 60.554688 181.539062 61.109375 182.210938 61.726562 182.832031 C 62.347656 183.449219 63.019531 184.003906 63.746094 184.488281 C 64.476562 184.976562 65.242188 185.386719 66.050781 185.722656 C 66.859375 186.054688 67.695312 186.308594 68.550781 186.480469 C 69.410156 186.648438 70.277344 186.734375 71.152344 186.734375 L 84.480469 186.734375 C 83.605469 186.734375 82.738281 186.648438 81.882812 186.480469 C 81.023438 186.308594 80.191406 186.054688 79.382812 185.722656 C 78.574219 185.386719 77.804688 184.976562 77.078125 184.488281 C 76.347656 184.003906 75.675781 183.449219 75.058594 182.832031 C 74.4375 182.210938 73.886719 181.539062 73.398438 180.8125 C 72.914062 180.082031 72.503906 179.316406 72.167969 178.507812 C 71.832031 177.699219 71.578125 176.863281 71.410156 176.007812 C 71.238281 175.148438 71.152344 174.28125 71.152344 173.40625 Z M 71.152344 173.40625 " fill-opacity="1" fill-rule="nonzero"/></g><path fill="#2d4a60" d="M 120.027344 102.320312 C 120.027344 103.191406 119.984375 104.0625 119.898438 104.929688 C 119.8125 105.800781 119.683594 106.664062 119.511719 107.519531 C 119.34375 108.375 119.132812 109.222656 118.878906 110.058594 C 118.625 110.890625 118.332031 111.714844 117.996094 112.519531 C 117.664062 113.328125 117.289062 114.113281 116.878906 114.886719 C 116.464844 115.65625 116.019531 116.402344 115.53125 117.128906 C 115.046875 117.855469 114.527344 118.554688 113.972656 119.230469 C 113.421875 119.90625 112.835938 120.550781 112.21875 121.167969 C 111.601562 121.785156 110.953125 122.371094 110.28125 122.925781 C 109.605469 123.480469 108.902344 124 108.179688 124.484375 C 107.453125 124.96875 106.703125 125.417969 105.933594 125.828125 C 105.164062 126.242188 104.375 126.613281 103.570312 126.949219 C 102.761719 127.28125 101.941406 127.574219 101.105469 127.828125 C 100.269531 128.082031 99.425781 128.292969 98.570312 128.464844 C 97.710938 128.632812 96.847656 128.761719 95.980469 128.847656 C 95.113281 128.933594 94.242188 128.976562 93.367188 128.976562 C 92.496094 128.976562 91.625 128.933594 90.753906 128.847656 C 89.886719 128.761719 89.023438 128.632812 88.167969 128.464844 C 87.3125 128.292969 86.464844 128.082031 85.628906 127.828125 C 84.792969 127.574219 83.972656 127.28125 83.167969 126.949219 C 82.359375 126.613281 81.570312 126.242188 80.800781 125.828125 C 80.03125 125.417969 79.285156 124.96875 78.558594 124.484375 C 77.832031 124 77.132812 123.480469 76.457031 122.925781 C 75.78125 122.371094 75.136719 121.785156 74.519531 121.167969 C 73.898438 120.550781 73.316406 119.90625 72.761719 119.230469 C 72.207031 118.554688 71.6875 117.855469 71.203125 117.128906 C 70.71875 116.402344 70.269531 115.65625 69.859375 114.886719 C 69.445312 114.113281 69.074219 113.328125 68.738281 112.519531 C 68.40625 111.714844 68.109375 110.890625 67.859375 110.058594 C 67.605469 109.222656 67.390625 108.375 67.222656 107.519531 C 67.050781 106.664062 66.921875 105.800781 66.839844 104.929688 C 66.753906 104.0625 66.710938 103.191406 66.710938 102.320312 C 66.710938 101.445312 66.753906 100.574219 66.839844 99.707031 C 66.921875 98.835938 67.050781 97.972656 67.222656 97.117188 C 67.390625 96.261719 67.605469 95.414062 67.859375 94.582031 C 68.109375 93.746094 68.40625 92.921875 68.738281 92.117188 C 69.074219 91.308594 69.445312 90.523438 69.859375 89.753906 C 70.269531 88.980469 70.71875 88.234375 71.203125 87.507812 C 71.6875 86.78125 72.207031 86.082031 72.761719 85.40625 C 73.316406 84.730469 73.898438 84.085938 74.519531 83.46875 C 75.136719 82.851562 75.78125 82.265625 76.457031 81.710938 C 77.132812 81.15625 77.832031 80.636719 78.558594 80.152344 C 79.285156 79.667969 80.03125 79.21875 80.800781 78.808594 C 81.570312 78.398438 82.359375 78.023438 83.167969 77.691406 C 83.972656 77.355469 84.792969 77.0625 85.628906 76.808594 C 86.464844 76.554688 87.3125 76.34375 88.167969 76.171875 C 89.023438 76.003906 89.886719 75.875 90.753906 75.789062 C 91.625 75.703125 92.496094 75.660156 93.367188 75.660156 C 94.242188 75.660156 95.113281 75.703125 95.980469 75.789062 C 96.847656 75.875 97.710938 76.003906 98.570312 76.171875 C 99.425781 76.34375 100.269531 76.554688 101.105469 76.808594 C 101.941406 77.0625 102.761719 77.355469 103.570312 77.691406 C 104.375 78.023438 105.164062 78.398438 105.933594 78.808594 C 106.703125 79.21875 107.453125 79.667969 108.179688 80.152344 C 108.902344 80.636719 109.605469 81.15625 110.28125 81.710938 C 110.953125 82.265625 111.601562 82.851562 112.21875 83.46875 C 112.835938 84.085938 113.421875 84.730469 113.972656 85.40625 C 114.527344 86.082031 115.046875 86.78125 115.53125 87.507812 C 116.019531 88.234375 116.464844 88.980469 116.878906 89.753906 C 117.289062 90.523438 117.664062 91.308594 117.996094 92.117188 C 118.332031 92.921875 118.625 93.746094 118.878906 94.582031 C 119.132812 95.414062 119.34375 96.261719 119.511719 97.117188 C 119.683594 97.972656 119.8125 98.835938 119.898438 99.707031 C 119.984375 100.574219 120.027344 101.445312 120.027344 102.320312 Z M 120.027344 102.320312 " fill-opacity="1" fill-rule="nonzero"/><path fill="#263f52" d="M 100.03125 120.089844 C 98.800781 120.09375 97.578125 120 96.363281 119.816406 C 95.148438 119.632812 93.953125 119.359375 92.777344 118.996094 C 91.605469 118.632812 90.464844 118.183594 89.355469 117.648438 C 88.25 117.109375 87.191406 116.492188 86.175781 115.796875 C 85.164062 115.101562 84.207031 114.332031 83.3125 113.492188 C 82.414062 112.652344 81.585938 111.746094 80.824219 110.78125 C 80.0625 109.816406 79.378906 108.796875 78.773438 107.726562 C 78.167969 106.660156 77.644531 105.550781 77.203125 104.402344 C 76.765625 103.253906 76.414062 102.078125 76.152344 100.875 C 75.890625 99.675781 75.722656 98.460938 75.644531 97.234375 C 75.566406 96.007812 75.578125 94.78125 75.6875 93.554688 C 75.792969 92.332031 75.992188 91.121094 76.28125 89.925781 C 76.570312 88.730469 76.949219 87.5625 77.414062 86.425781 C 77.882812 85.289062 78.429688 84.191406 79.0625 83.136719 C 79.695312 82.082031 80.402344 81.082031 81.183594 80.132812 C 81.96875 79.1875 82.820312 78.300781 83.734375 77.480469 C 83.21875 77.679688 82.710938 77.894531 82.210938 78.125 C 81.707031 78.355469 81.214844 78.601562 80.726562 78.863281 C 80.242188 79.125 79.761719 79.402344 79.292969 79.691406 C 78.824219 79.980469 78.363281 80.289062 77.914062 80.605469 C 77.464844 80.925781 77.023438 81.257812 76.59375 81.605469 C 76.164062 81.953125 75.746094 82.3125 75.339844 82.683594 C 74.929688 83.058594 74.535156 83.441406 74.152344 83.839844 C 73.769531 84.238281 73.398438 84.648438 73.039062 85.066406 C 72.679688 85.488281 72.335938 85.917969 72.003906 86.359375 C 71.675781 86.800781 71.355469 87.253906 71.054688 87.714844 C 70.75 88.175781 70.460938 88.648438 70.1875 89.125 C 69.914062 89.605469 69.65625 90.09375 69.410156 90.589844 C 69.167969 91.085938 68.941406 91.585938 68.726562 92.097656 C 68.515625 92.605469 68.320312 93.121094 68.140625 93.644531 C 67.957031 94.167969 67.792969 94.691406 67.648438 95.226562 C 67.5 95.757812 67.367188 96.292969 67.253906 96.832031 C 67.140625 97.375 67.042969 97.917969 66.960938 98.464844 C 66.882812 99.007812 66.816406 99.558594 66.769531 100.109375 C 66.722656 100.660156 66.695312 101.210938 66.683594 101.761719 C 66.671875 102.3125 66.675781 102.867188 66.699219 103.417969 C 66.71875 103.96875 66.757812 104.519531 66.816406 105.070312 C 66.871094 105.617188 66.945312 106.164062 67.035156 106.710938 C 67.125 107.253906 67.230469 107.796875 67.355469 108.332031 C 67.480469 108.871094 67.621094 109.40625 67.777344 109.933594 C 67.933594 110.464844 68.109375 110.988281 68.296875 111.507812 C 68.488281 112.027344 68.691406 112.539062 68.914062 113.042969 C 69.136719 113.550781 69.371094 114.046875 69.625 114.539062 C 69.878906 115.03125 70.144531 115.511719 70.425781 115.988281 C 70.710938 116.460938 71.007812 116.925781 71.316406 117.382812 C 71.628906 117.839844 71.953125 118.285156 72.292969 118.722656 C 72.632812 119.15625 72.984375 119.582031 73.351562 119.996094 C 73.714844 120.410156 74.09375 120.8125 74.484375 121.203125 C 74.875 121.59375 75.277344 121.96875 75.691406 122.335938 C 76.105469 122.703125 76.53125 123.054688 76.964844 123.394531 C 77.402344 123.730469 77.847656 124.058594 78.304688 124.367188 C 78.757812 124.679688 79.222656 124.976562 79.699219 125.257812 C 80.171875 125.542969 80.65625 125.808594 81.148438 126.0625 C 81.636719 126.3125 82.136719 126.550781 82.644531 126.773438 C 83.148438 126.992188 83.660156 127.199219 84.179688 127.390625 C 84.699219 127.578125 85.222656 127.75 85.75 127.910156 C 86.28125 128.066406 86.8125 128.207031 87.351562 128.332031 C 87.890625 128.453125 88.433594 128.5625 88.976562 128.652344 C 89.523438 128.742188 90.070312 128.816406 90.617188 128.871094 C 91.167969 128.925781 91.71875 128.964844 92.269531 128.988281 C 92.820312 129.011719 93.371094 129.015625 93.925781 129.003906 C 94.476562 128.992188 95.027344 128.960938 95.578125 128.914062 C 96.128906 128.867188 96.675781 128.804688 97.222656 128.726562 C 97.769531 128.644531 98.3125 128.546875 98.851562 128.433594 C 99.394531 128.316406 99.929688 128.1875 100.460938 128.039062 C 100.992188 127.890625 101.519531 127.726562 102.042969 127.546875 C 102.5625 127.367188 103.078125 127.171875 103.589844 126.957031 C 104.097656 126.746094 104.601562 126.519531 105.097656 126.273438 C 105.59375 126.03125 106.082031 125.773438 106.558594 125.496094 C 107.039062 125.222656 107.507812 124.933594 107.972656 124.632812 C 108.433594 124.328125 108.882812 124.011719 109.324219 123.679688 C 109.769531 123.347656 110.199219 123.003906 110.621094 122.648438 C 111.039062 122.289062 111.449219 121.917969 111.847656 121.535156 C 112.242188 121.152344 112.628906 120.753906 113 120.347656 C 113.375 119.941406 113.734375 119.523438 114.082031 119.09375 C 114.425781 118.664062 114.761719 118.222656 115.078125 117.773438 C 115.398438 117.320312 115.703125 116.863281 115.996094 116.394531 C 116.285156 115.921875 116.5625 115.445312 116.824219 114.957031 C 117.082031 114.472656 117.328125 113.976562 117.558594 113.476562 C 117.789062 112.976562 118.003906 112.464844 118.203125 111.949219 C 117.0625 113.230469 115.796875 114.378906 114.414062 115.390625 C 113.027344 116.40625 111.554688 117.261719 109.988281 117.964844 C 108.421875 118.664062 106.800781 119.195312 105.121094 119.554688 C 103.445312 119.910156 101.746094 120.089844 100.03125 120.089844 Z M 100.03125 120.089844 " fill-opacity="1" fill-rule="nonzero"/><g clip-path="url(#54e19465c7)"><path fill="#d9e1e2" d="M 62.265625 17.902344 L 17.835938 17.902344 C 16.960938 17.902344 16.09375 17.988281 15.238281 18.15625 C 14.378906 18.328125 13.542969 18.582031 12.734375 18.917969 C 11.925781 19.25 11.160156 19.660156 10.433594 20.148438 C 9.703125 20.632812 9.03125 21.1875 8.410156 21.804688 C 7.792969 22.425781 7.242188 23.097656 6.753906 23.824219 C 6.269531 24.554688 5.859375 25.320312 5.523438 26.128906 C 5.1875 26.9375 4.933594 27.773438 4.765625 28.628906 C 4.59375 29.488281 4.507812 30.355469 4.507812 31.230469 L 4.507812 57.890625 C 4.507812 58.765625 4.59375 59.628906 4.765625 60.488281 C 4.933594 61.347656 5.1875 62.179688 5.523438 62.988281 C 5.859375 63.796875 6.269531 64.566406 6.753906 65.292969 C 7.242188 66.023438 7.792969 66.695312 8.410156 67.3125 C 9.03125 67.933594 9.703125 68.484375 10.433594 68.972656 C 11.160156 69.457031 11.925781 69.867188 12.734375 70.203125 C 13.542969 70.539062 14.378906 70.789062 15.238281 70.960938 C 16.09375 71.132812 16.960938 71.21875 17.835938 71.21875 L 29.328125 71.21875 L 33.769531 75.660156 C 34.183594 76.074219 34.628906 76.441406 35.117188 76.765625 C 35.601562 77.089844 36.113281 77.363281 36.652344 77.585938 C 37.191406 77.808594 37.746094 77.976562 38.320312 78.089844 C 38.890625 78.207031 39.46875 78.261719 40.050781 78.261719 C 40.636719 78.261719 41.214844 78.207031 41.785156 78.089844 C 42.355469 77.976562 42.914062 77.808594 43.453125 77.585938 C 43.992188 77.363281 44.503906 77.089844 44.988281 76.765625 C 45.472656 76.441406 45.921875 76.074219 46.335938 75.660156 L 50.777344 71.21875 L 62.265625 71.21875 C 63.140625 71.21875 64.007812 71.132812 64.867188 70.960938 C 65.726562 70.789062 66.558594 70.539062 67.367188 70.203125 C 68.175781 69.867188 68.945312 69.457031 69.671875 68.972656 C 70.398438 68.484375 71.074219 67.933594 71.691406 67.3125 C 72.3125 66.695312 72.863281 66.023438 73.347656 65.292969 C 73.835938 64.566406 74.246094 63.796875 74.582031 62.988281 C 74.917969 62.179688 75.167969 61.347656 75.339844 60.488281 C 75.511719 59.628906 75.597656 58.765625 75.597656 57.890625 L 75.597656 31.230469 C 75.597656 30.355469 75.511719 29.488281 75.339844 28.628906 C 75.167969 27.773438 74.917969 26.9375 74.582031 26.128906 C 74.246094 25.320312 73.835938 24.554688 73.347656 23.824219 C 72.863281 23.097656 72.3125 22.425781 71.691406 21.804688 C 71.074219 21.1875 70.398438 20.632812 69.671875 20.148438 C 68.945312 19.660156 68.175781 19.25 67.367188 18.917969 C 66.558594 18.582031 65.726562 18.328125 64.867188 18.15625 C 64.007812 17.988281 63.140625 17.902344 62.265625 17.902344 Z M 62.265625 17.902344 " fill-opacity="1" fill-rule="nonzero"/></g><g clip-path="url(#50ad300b76)"><path fill="#d9e1e2" d="M 168.898438 17.902344 L 124.46875 17.902344 C 123.59375 17.902344 122.726562 17.988281 121.867188 18.15625 C 121.011719 18.328125 120.175781 18.582031 119.367188 18.917969 C 118.558594 19.25 117.792969 19.660156 117.0625 20.148438 C 116.335938 20.632812 115.664062 21.1875 115.042969 21.804688 C 114.425781 22.425781 113.871094 23.097656 113.386719 23.824219 C 112.898438 24.554688 112.488281 25.320312 112.152344 26.128906 C 111.820312 26.9375 111.566406 27.773438 111.394531 28.628906 C 111.226562 29.488281 111.140625 30.355469 111.140625 31.230469 L 111.140625 57.890625 C 111.140625 58.765625 111.226562 59.628906 111.394531 60.488281 C 111.566406 61.347656 111.820312 62.179688 112.152344 62.988281 C 112.488281 63.796875 112.898438 64.566406 113.386719 65.292969 C 113.871094 66.023438 114.425781 66.695312 115.042969 67.3125 C 115.664062 67.933594 116.335938 68.484375 117.0625 68.972656 C 117.792969 69.457031 118.558594 69.867188 119.367188 70.203125 C 120.175781 70.539062 121.011719 70.789062 121.867188 70.960938 C 122.726562 71.132812 123.59375 71.21875 124.46875 71.21875 L 135.957031 71.21875 L 140.402344 75.660156 C 140.8125 76.074219 141.261719 76.441406 141.746094 76.765625 C 142.234375 77.089844 142.746094 77.363281 143.285156 77.585938 C 143.824219 77.808594 144.378906 77.976562 144.949219 78.089844 C 145.523438 78.207031 146.101562 78.261719 146.683594 78.261719 C 147.265625 78.261719 147.84375 78.207031 148.417969 78.089844 C 148.988281 77.976562 149.542969 77.808594 150.082031 77.585938 C 150.621094 77.363281 151.132812 77.089844 151.621094 76.765625 C 152.105469 76.441406 152.554688 76.074219 152.964844 75.660156 L 157.410156 71.21875 L 168.898438 71.21875 C 169.773438 71.21875 170.640625 71.132812 171.5 70.960938 C 172.355469 70.789062 173.191406 70.539062 174 70.203125 C 174.808594 69.867188 175.574219 69.457031 176.304688 68.972656 C 177.03125 68.484375 177.703125 67.933594 178.324219 67.3125 C 178.941406 66.695312 179.496094 66.023438 179.980469 65.292969 C 180.46875 64.566406 180.878906 63.796875 181.210938 62.988281 C 181.546875 62.179688 181.800781 61.347656 181.972656 60.488281 C 182.140625 59.628906 182.226562 58.765625 182.226562 57.890625 L 182.226562 31.230469 C 182.226562 30.355469 182.140625 29.488281 181.972656 28.628906 C 181.800781 27.773438 181.546875 26.9375 181.210938 26.128906 C 180.878906 25.320312 180.46875 24.554688 179.980469 23.824219 C 179.496094 23.097656 178.941406 22.425781 178.324219 21.804688 C 177.703125 21.1875 177.03125 20.632812 176.304688 20.148438 C 175.574219 19.660156 174.808594 19.25 174 18.917969 C 173.191406 18.582031 172.355469 18.328125 171.5 18.15625 C 170.640625 17.988281 169.773438 17.902344 168.898438 17.902344 Z M 168.898438 17.902344 " fill-opacity="1" fill-rule="nonzero"/></g><g clip-path="url(#e07f2a380a)"><path fill="#eaeff0" d="M 120.027344 9.015625 L 66.710938 9.015625 C 65.835938 9.015625 64.96875 9.101562 64.109375 9.273438 C 63.25 9.441406 62.417969 9.695312 61.609375 10.03125 C 60.800781 10.367188 60.03125 10.777344 59.304688 11.261719 C 58.578125 11.75 57.902344 12.300781 57.285156 12.917969 C 56.664062 13.539062 56.113281 14.210938 55.628906 14.941406 C 55.140625 15.667969 54.730469 16.4375 54.394531 17.242188 C 54.058594 18.050781 53.808594 18.886719 53.636719 19.746094 C 53.464844 20.601562 53.378906 21.46875 53.378906 22.34375 L 53.378906 49.003906 C 53.378906 49.878906 53.464844 50.746094 53.636719 51.601562 C 53.808594 52.460938 54.058594 53.296875 54.394531 54.105469 C 54.730469 54.914062 55.140625 55.679688 55.628906 56.40625 C 56.113281 57.136719 56.664062 57.808594 57.285156 58.429688 C 57.902344 59.046875 58.578125 59.597656 59.304688 60.085938 C 60.03125 60.570312 60.800781 60.980469 61.609375 61.316406 C 62.417969 61.652344 63.25 61.90625 64.109375 62.074219 C 64.96875 62.246094 65.835938 62.332031 66.710938 62.332031 L 82.640625 62.332031 L 87.085938 66.773438 C 87.496094 67.1875 87.945312 67.554688 88.433594 67.878906 C 88.917969 68.203125 89.429688 68.476562 89.96875 68.699219 C 90.507812 68.921875 91.0625 69.09375 91.632812 69.207031 C 92.207031 69.320312 92.785156 69.375 93.367188 69.375 C 93.949219 69.375 94.527344 69.320312 95.101562 69.207031 C 95.671875 69.09375 96.230469 68.921875 96.769531 68.699219 C 97.304688 68.476562 97.820312 68.203125 98.304688 67.878906 C 98.789062 67.554688 99.238281 67.1875 99.648438 66.773438 L 104.09375 62.332031 L 120.027344 62.332031 C 120.902344 62.332031 121.769531 62.246094 122.625 62.074219 C 123.484375 61.90625 124.316406 61.652344 125.125 61.316406 C 125.933594 60.980469 126.703125 60.570312 127.429688 60.085938 C 128.160156 59.597656 128.832031 59.046875 129.449219 58.429688 C 130.070312 57.808594 130.621094 57.136719 131.109375 56.40625 C 131.59375 55.679688 132.003906 54.914062 132.339844 54.105469 C 132.675781 53.296875 132.929688 52.460938 133.097656 51.601562 C 133.269531 50.746094 133.355469 49.878906 133.355469 49.003906 L 133.355469 22.34375 C 133.355469 21.46875 133.269531 20.601562 133.097656 19.746094 C 132.929688 18.886719 132.675781 18.050781 132.339844 17.242188 C 132.003906 16.4375 131.59375 15.667969 131.109375 14.941406 C 130.621094 14.210938 130.070312 13.539062 129.449219 12.917969 C 128.832031 12.300781 128.160156 11.75 127.429688 11.261719 C 126.703125 10.777344 125.933594 10.367188 125.125 10.03125 C 124.316406 9.695312 123.484375 9.441406 122.625 9.273438 C 121.769531 9.101562 120.902344 9.015625 120.027344 9.015625 Z M 120.027344 9.015625 " fill-opacity="1" fill-rule="nonzero"/></g><g clip-path="url(#f94345f523)"><g clip-path="url(#c12c595afc)"><path fill="#ff5454" d="M 79.265625 24.523438 L 107.738281 24.523438 L 107.738281 49.4375 L 79.265625 49.4375 Z M 79.265625 24.523438 " fill-opacity="1" fill-rule="nonzero"/></g></g><g clip-path="url(#2b8b939cb9)"><path fill="#df4c4c" d="M 30.027344 55.824219 L 25.363281 51.164062 L 45.648438 30.875 L 50.3125 35.539062 L 30.027344 55.824219 " fill-opacity="1" fill-rule="nonzero"/><path fill="#df4c4c" d="M 45.648438 55.824219 L 50.3125 51.164062 L 30.027344 30.875 L 25.363281 35.539062 L 45.648438 55.824219 " fill-opacity="1" fill-rule="nonzero"/></g><g clip-path="url(#c8919d59a6)"><path fill="#f66e7c" d="M 167.433594 52.164062 L 152.429688 52.164062 L 145.878906 59.402344 L 145.878906 52.164062 L 139.332031 52.164062 L 139.332031 33.613281 L 167.433594 33.613281 L 167.433594 52.164062 " fill-opacity="1" fill-rule="evenodd"/></g><path fill="#b35d66" d="M 163.019531 47.734375 L 143.746094 47.734375 C 143.460938 47.734375 143.226562 47.5 143.226562 47.210938 C 143.226562 46.921875 143.460938 46.6875 143.746094 46.6875 L 163.019531 46.6875 C 163.308594 46.6875 163.539062 46.921875 163.539062 47.210938 C 163.539062 47.5 163.308594 47.734375 163.019531 47.734375 " fill-opacity="1" fill-rule="evenodd"/><path fill="#b35d66" d="M 163.019531 43.410156 L 143.746094 43.410156 C 143.460938 43.410156 143.226562 43.175781 143.226562 42.886719 C 143.226562 42.597656 143.460938 42.367188 143.746094 42.367188 L 163.019531 42.367188 C 163.308594 42.367188 163.539062 42.601562 163.539062 42.886719 C 163.539062 43.175781 163.308594 43.410156 163.019531 43.410156 " fill-opacity="1" fill-rule="evenodd"/><path fill="#b35d66" d="M 152.953125 39.089844 L 143.746094 39.089844 C 143.460938 39.089844 143.226562 38.855469 143.226562 38.566406 C 143.226562 38.277344 143.460938 38.042969 143.746094 38.042969 L 152.953125 38.042969 C 153.242188 38.042969 153.476562 38.277344 153.476562 38.566406 C 153.476562 38.855469 153.242188 39.089844 152.953125 39.089844 " fill-opacity="1" fill-rule="evenodd"/><g clip-path="url(#6c5db8654b)"><path fill="#f9c7b2" d="M 175.167969 33.476562 L 174.496094 33.476562 C 175.253906 33.476562 175.867188 34.09375 175.867188 34.851562 C 175.867188 35.234375 175.714844 35.578125 175.464844 35.828125 C 175.21875 36.074219 174.875 36.230469 174.496094 36.230469 L 173.222656 36.230469 C 173.976562 36.230469 174.589844 36.847656 174.589844 37.609375 C 174.589844 37.988281 174.4375 38.332031 174.191406 38.582031 C 173.941406 38.832031 173.601562 38.984375 173.222656 38.984375 L 161.023438 38.984375 L 161.023438 27.96875 L 163.445312 27.96875 C 164.742188 26.25 164.875 23.460938 164.847656 22.035156 C 164.824219 20.828125 166.199219 20.117188 167.167969 20.835938 C 167.753906 21.273438 168.28125 22.042969 168.542969 23.320312 C 168.75 24.351562 168.722656 25.414062 168.472656 26.4375 L 168.101562 27.96875 L 174.703125 27.96875 C 175.460938 27.96875 176.074219 28.582031 176.074219 29.34375 C 176.074219 29.722656 175.917969 30.070312 175.671875 30.316406 C 175.421875 30.566406 175.082031 30.722656 174.703125 30.722656 L 175.167969 30.722656 C 175.925781 30.722656 176.539062 31.339844 176.539062 32.097656 C 176.539062 32.480469 176.386719 32.824219 176.136719 33.070312 C 175.890625 33.320312 175.546875 33.476562 175.167969 33.476562 " fill-opacity="1" fill-rule="evenodd"/></g><g clip-path="url(#2d2748f2cc)"><path fill="#d1a795" d="M 176.074219 29.34375 C 176.074219 29.722656 175.921875 30.070312 175.671875 30.320312 C 175.421875 30.566406 175.082031 30.722656 174.703125 30.722656 L 171.265625 30.722656 L 171.265625 30.613281 L 174.703125 30.613281 C 175.398438 30.613281 175.976562 30.089844 176.074219 29.34375 " fill-opacity="1" fill-rule="evenodd"/></g><path fill="#f7e07f" d="M 157.609375 39.597656 L 161.382812 39.597656 L 161.382812 27.351562 L 157.609375 27.351562 L 157.609375 39.597656 " fill-opacity="1" fill-rule="evenodd"/><g clip-path="url(#e7503f566e)"><path fill="#d1a795" d="M 176.539062 32.097656 C 176.539062 32.480469 176.386719 32.824219 176.136719 33.074219 C 175.890625 33.320312 175.546875 33.476562 175.167969 33.476562 L 171.265625 33.476562 L 171.265625 33.367188 L 175.167969 33.367188 C 175.867188 33.367188 176.414062 32.878906 176.539062 32.097656 " fill-opacity="1" fill-rule="evenodd"/></g><path fill="#d1a795" d="M 175.867188 34.851562 C 175.867188 35.234375 175.714844 35.578125 175.46875 35.828125 C 175.21875 36.074219 174.875 36.230469 174.496094 36.230469 L 171.167969 36.230469 L 171.167969 36.121094 L 174.496094 36.121094 C 175.195312 36.121094 175.722656 35.636719 175.867188 34.851562 " fill-opacity="1" fill-rule="evenodd"/></svg>